<?xml version="1.0" encoding="UTF-8"?>
<!DOCTYPE svg PUBLIC "-//W3C//DTD SVG 1.1//EN" "http://www.w3.org/Graphics/SVG/1.1/DTD/svg11.dtd">
<svg version="1.1" xmlns="http://www.w3.org/2000/svg" xmlns:xlink="http://www.w3.org/1999/xlink" x="0px" y="0px" width="283.465" height="170.079" viewBox="0, 0, 283.465, 170.079">
  <g id="Layer 1">
    <path d="M77.089,162.68 L23.096,108.687 L42.859,34.931 L116.614,15.169 L170.607,69.162 L150.844,142.917 z" fill="#EE0000"/>
    <path d="M168.145,157.892 L114.153,103.899 L133.915,30.144 L207.671,10.381 L261.664,64.374 L241.901,138.13 z" fill="#6C6C6C" fill-opacity="0.774"/>
    <path d="M60.237,88.736 L64.715,88.736 L64.715,91.639 L64.798,91.639 Q65.793,89.773 67.576,88.964 Q69.359,88.156 71.432,88.156 Q73.961,88.156 75.848,89.047 Q77.734,89.939 78.978,91.494 Q80.222,93.048 80.844,95.121 Q81.466,97.195 81.466,99.558 Q81.466,101.714 80.906,103.745 Q80.346,105.777 79.206,107.332 Q78.066,108.887 76.324,109.82 Q74.583,110.752 72.22,110.752 Q71.183,110.752 70.147,110.566 Q69.11,110.379 68.156,109.965 Q67.203,109.55 66.394,108.907 Q65.586,108.265 65.047,107.394 L64.964,107.394 L64.964,118.091 L60.237,118.091 z M76.739,99.475 Q76.739,98.024 76.366,96.656 Q75.993,95.287 75.246,94.23 Q74.5,93.173 73.381,92.53 Q72.261,91.887 70.81,91.887 Q67.825,91.887 66.311,93.961 Q64.798,96.034 64.798,99.475 Q64.798,101.092 65.192,102.481 Q65.586,103.87 66.374,104.865 Q67.161,105.86 68.26,106.44 Q69.359,107.021 70.81,107.021 Q72.427,107.021 73.546,106.358 Q74.666,105.694 75.391,104.637 Q76.117,103.58 76.428,102.232 Q76.739,100.885 76.739,99.475 z" fill="#FFFFFF"/>
    <path d="M95.272,110.752 Q92.702,110.752 90.691,109.902 Q88.68,109.053 87.291,107.56 Q85.902,106.067 85.176,103.994 Q84.451,101.921 84.451,99.433 Q84.451,96.987 85.176,94.914 Q85.902,92.841 87.291,91.348 Q88.68,89.856 90.691,89.006 Q92.702,88.156 95.272,88.156 Q97.843,88.156 99.854,89.006 Q101.865,89.856 103.254,91.348 Q104.643,92.841 105.368,94.914 Q106.094,96.987 106.094,99.433 Q106.094,101.921 105.368,103.994 Q104.643,106.067 103.254,107.56 Q101.865,109.053 99.854,109.902 Q97.843,110.752 95.272,110.752 z M95.272,107.021 Q96.848,107.021 98.009,106.358 Q99.17,105.694 99.916,104.616 Q100.662,103.538 101.015,102.191 Q101.367,100.843 101.367,99.433 Q101.367,98.065 101.015,96.697 Q100.662,95.329 99.916,94.271 Q99.17,93.214 98.009,92.551 Q96.848,91.887 95.272,91.887 Q93.697,91.887 92.536,92.551 Q91.375,93.214 90.629,94.271 Q89.882,95.329 89.53,96.697 Q89.177,98.065 89.177,99.433 Q89.177,100.843 89.53,102.191 Q89.882,103.538 90.629,104.616 Q91.375,105.694 92.536,106.358 Q93.697,107.021 95.272,107.021 z" fill="#FFFFFF"/>
    <path d="M110.157,80.568 L114.884,80.568 L114.884,110.172 L110.157,110.172 z" fill="#FFFFFF"/>
    <path d="M117.662,88.736 L122.844,88.736 L128.442,104.741 L128.524,104.741 L133.956,88.736 L138.89,88.736 L130.556,111.333 Q129.976,112.784 129.416,114.111 Q128.856,115.438 128.048,116.453 Q127.239,117.469 126.037,118.07 Q124.834,118.672 122.969,118.672 Q121.31,118.672 119.693,118.423 L119.693,114.443 Q120.274,114.525 120.813,114.629 Q121.352,114.733 121.932,114.733 Q122.761,114.733 123.3,114.525 Q123.839,114.318 124.192,113.924 Q124.544,113.53 124.793,112.991 Q125.042,112.452 125.249,111.748 L125.788,110.089 z" fill="#FFFFFF"/>
    <path d="M141.543,80.568 L146.27,80.568 L146.27,91.556 L146.353,91.556 Q147.224,90.105 148.944,89.13 Q150.665,88.156 152.78,88.156 Q156.304,88.156 158.335,89.98 Q160.367,91.805 160.367,95.453 L160.367,110.172 L155.64,110.172 L155.64,96.697 Q155.557,94.168 154.562,93.028 Q153.567,91.887 151.453,91.887 Q150.25,91.887 149.297,92.323 Q148.343,92.758 147.68,93.525 Q147.016,94.292 146.643,95.329 Q146.27,96.365 146.27,97.526 L146.27,110.172 L141.543,110.172 z" fill="#FFFFFF"/>
    <path d="M183.295,105.404 Q183.295,106.275 183.523,106.648 Q183.751,107.021 184.415,107.021 Q184.622,107.021 184.912,107.021 Q185.202,107.021 185.576,106.938 L185.576,110.213 Q185.327,110.296 184.933,110.4 Q184.539,110.504 184.124,110.587 Q183.71,110.67 183.295,110.711 Q182.881,110.752 182.59,110.752 Q181.139,110.752 180.186,110.172 Q179.232,109.592 178.942,108.14 Q177.532,109.509 175.48,110.131 Q173.427,110.752 171.52,110.752 Q170.069,110.752 168.742,110.359 Q167.415,109.965 166.4,109.198 Q165.384,108.431 164.783,107.249 Q164.181,106.067 164.181,104.492 Q164.181,102.502 164.907,101.258 Q165.633,100.014 166.814,99.309 Q167.996,98.604 169.468,98.293 Q170.94,97.982 172.432,97.816 Q173.718,97.568 174.879,97.464 Q176.039,97.36 176.931,97.112 Q177.822,96.863 178.341,96.345 Q178.859,95.826 178.859,94.79 Q178.859,93.878 178.424,93.297 Q177.988,92.717 177.346,92.406 Q176.703,92.095 175.915,91.991 Q175.127,91.887 174.422,91.887 Q172.432,91.887 171.147,92.717 Q169.862,93.546 169.696,95.287 L164.969,95.287 Q165.094,93.214 165.964,91.846 Q166.835,90.478 168.182,89.649 Q169.53,88.819 171.23,88.488 Q172.93,88.156 174.713,88.156 Q176.288,88.156 177.822,88.488 Q179.356,88.819 180.58,89.566 Q181.803,90.312 182.549,91.494 Q183.295,92.675 183.295,94.375 z M178.569,99.433 Q177.491,100.138 175.915,100.283 Q174.34,100.429 172.764,100.719 Q172.018,100.843 171.313,101.071 Q170.608,101.299 170.069,101.693 Q169.53,102.087 169.219,102.73 Q168.908,103.372 168.908,104.284 Q168.908,105.072 169.364,105.611 Q169.82,106.15 170.463,106.461 Q171.106,106.772 171.873,106.897 Q172.64,107.021 173.262,107.021 Q174.049,107.021 174.961,106.814 Q175.874,106.606 176.682,106.109 Q177.491,105.611 178.03,104.844 Q178.569,104.077 178.569,102.958 z" fill="#FFFFFF"/>
    <path d="M202.865,95.909 Q202.575,93.919 201.269,92.903 Q199.963,91.887 197.973,91.887 Q197.061,91.887 196.024,92.198 Q194.987,92.509 194.117,93.359 Q193.246,94.209 192.666,95.723 Q192.085,97.236 192.085,99.682 Q192.085,101.009 192.396,102.336 Q192.707,103.663 193.391,104.699 Q194.075,105.736 195.153,106.378 Q196.231,107.021 197.765,107.021 Q199.838,107.021 201.186,105.736 Q202.533,104.45 202.865,102.128 L207.592,102.128 Q206.928,106.316 204.42,108.534 Q201.911,110.752 197.765,110.752 Q195.236,110.752 193.308,109.902 Q191.38,109.053 190.053,107.581 Q188.727,106.109 188.043,104.077 Q187.358,102.046 187.358,99.682 Q187.358,97.277 188.022,95.163 Q188.685,93.048 190.012,91.494 Q191.339,89.939 193.308,89.047 Q195.278,88.156 197.931,88.156 Q199.797,88.156 201.476,88.633 Q203.155,89.11 204.461,90.063 Q205.767,91.017 206.597,92.468 Q207.426,93.919 207.592,95.909 z" fill="#FFFFFF"/>
    <path d="M211.572,80.568 L216.299,80.568 L216.299,97.402 L224.84,88.736 L230.644,88.736 L222.435,96.614 L231.432,110.172 L225.669,110.172 L219.118,99.765 L216.299,102.502 L216.299,110.172 L211.572,110.172 z" fill="#FFFFFF"/>
    <path d="M35.625,108.951 L36.374,105.165 Q33.58,105.104 33.58,102.938 Q33.58,101.926 34.278,101.288 Q34.977,100.65 36.333,100.65 L37.285,100.65 L38.439,94.759 L36.333,94.759 Q35.017,94.759 34.299,94.101 Q33.58,93.443 33.58,92.491 Q33.58,91.479 34.278,90.862 Q34.977,90.244 36.333,90.244 L39.35,90.244 L40.301,85.608 Q40.524,84.434 40.797,83.766 Q41.071,83.098 41.546,82.754 Q42.022,82.409 42.791,82.409 Q43.864,82.409 44.431,82.976 Q44.998,83.543 44.998,84.434 Q44.998,84.636 44.654,86.479 L43.905,90.244 L48.339,90.244 L49.31,85.608 Q49.513,84.555 49.695,83.908 Q49.877,83.26 50.353,82.814 Q50.829,82.369 51.74,82.369 Q52.792,82.369 53.369,82.916 Q53.946,83.462 53.946,84.393 Q53.946,84.819 53.896,85.224 Q53.845,85.628 53.764,86.003 Q53.683,86.377 53.663,86.479 L52.914,90.285 Q55.809,90.345 55.809,92.532 Q55.809,93.544 55.121,94.152 Q54.432,94.759 53.076,94.759 L52.043,94.759 L50.829,100.65 L53.076,100.65 Q54.432,100.65 55.121,101.298 Q55.809,101.946 55.809,102.938 Q55.809,103.93 55.131,104.547 Q54.452,105.165 53.076,105.165 L49.958,105.165 L49.007,109.821 Q48.784,110.935 48.612,111.542 Q48.44,112.149 47.954,112.605 Q47.468,113.06 46.557,113.06 Q45.545,113.06 44.958,112.493 Q44.371,111.927 44.371,111.016 Q44.371,110.185 44.654,108.951 L45.403,105.165 L40.929,105.165 L39.977,109.821 Q39.613,111.542 39.218,112.301 Q38.823,113.06 37.528,113.06 Q36.495,113.06 35.908,112.493 Q35.321,111.927 35.321,111.016 Q35.321,110.55 35.432,109.973 Q35.544,109.396 35.625,108.951 z M47.468,94.759 L42.994,94.759 L41.799,100.65 L46.314,100.65 z" fill="#FFFFFF"/>
  </g>
  <defs/>
</svg>
